<mxfile host="app.diagrams.net" modified="2024-05-18T17:12:03.348Z" agent="Mozilla/5.0 (Windows NT 10.0; Win64; x64) AppleWebKit/537.36 (KHTML, like Gecko) Chrome/124.0.0.0 Safari/537.36" etag="8Bwls0u3XNeztV4Iwadn" version="24.4.4" type="device">
  <diagram name="Page-1" id="2YBvvXClWsGukQMizWep">
    <mxGraphModel dx="2140" dy="522" grid="1" gridSize="10" guides="1" tooltips="1" connect="1" arrows="1" fold="1" page="1" pageScale="1" pageWidth="850" pageHeight="1100" math="0" shadow="0">
      <root>
        <mxCell id="0" />
        <mxCell id="1" parent="0" />
        <mxCell id="F2SxSTT8hz7Iwo73es0D-1" value="ticket:Ticket" style="shape=umlLifeline;perimeter=lifelinePerimeter;whiteSpace=wrap;html=1;container=1;dropTarget=0;collapsible=0;recursiveResize=0;outlineConnect=0;portConstraint=eastwest;newEdgeStyle={&quot;curved&quot;:0,&quot;rounded&quot;:0};" parent="1" vertex="1">
          <mxGeometry x="615" y="70" width="90" height="570" as="geometry" />
        </mxCell>
        <mxCell id="F2SxSTT8hz7Iwo73es0D-5" value="" style="html=1;points=[[0,0,0,0,5],[0,1,0,0,-5],[1,0,0,0,5],[1,1,0,0,-5]];perimeter=orthogonalPerimeter;outlineConnect=0;targetShapes=umlLifeline;portConstraint=eastwest;newEdgeStyle={&quot;curved&quot;:0,&quot;rounded&quot;:0};" parent="1" vertex="1">
          <mxGeometry x="655" y="339" width="10" height="291" as="geometry" />
        </mxCell>
        <mxCell id="F2SxSTT8hz7Iwo73es0D-3" value="item:Item" style="shape=umlLifeline;perimeter=lifelinePerimeter;whiteSpace=wrap;html=1;container=1;dropTarget=0;collapsible=0;recursiveResize=0;outlineConnect=0;portConstraint=eastwest;newEdgeStyle={&quot;curved&quot;:0,&quot;rounded&quot;:0};" parent="1" vertex="1">
          <mxGeometry x="757.5" y="70" width="85" height="510" as="geometry" />
        </mxCell>
        <mxCell id="F2SxSTT8hz7Iwo73es0D-4" value="loop&lt;div&gt;for each&lt;/div&gt;" style="shape=umlFrame;whiteSpace=wrap;html=1;pointerEvents=0;" parent="1" vertex="1">
          <mxGeometry x="630" y="371" width="200" height="220" as="geometry" />
        </mxCell>
        <mxCell id="F2SxSTT8hz7Iwo73es0D-7" value="" style="html=1;points=[[0,0,0,0,5],[0,1,0,0,-5],[1,0,0,0,5],[1,1,0,0,-5]];perimeter=orthogonalPerimeter;outlineConnect=0;targetShapes=umlLifeline;portConstraint=eastwest;newEdgeStyle={&quot;curved&quot;:0,&quot;rounded&quot;:0};" parent="1" vertex="1">
          <mxGeometry x="795" y="401" width="10" height="180" as="geometry" />
        </mxCell>
        <mxCell id="F2SxSTT8hz7Iwo73es0D-8" value="getCant()" style="html=1;verticalAlign=bottom;endArrow=block;curved=0;rounded=0;" parent="1" target="F2SxSTT8hz7Iwo73es0D-7" edge="1">
          <mxGeometry width="80" relative="1" as="geometry">
            <mxPoint x="665" y="411" as="sourcePoint" />
            <mxPoint x="815" y="411" as="targetPoint" />
          </mxGeometry>
        </mxCell>
        <mxCell id="F2SxSTT8hz7Iwo73es0D-9" value="return int" style="html=1;verticalAlign=bottom;endArrow=open;dashed=1;endSize=8;curved=0;rounded=0;" parent="1" source="F2SxSTT8hz7Iwo73es0D-7" edge="1">
          <mxGeometry relative="1" as="geometry">
            <mxPoint x="815" y="436" as="sourcePoint" />
            <mxPoint x="665" y="436" as="targetPoint" />
          </mxGeometry>
        </mxCell>
        <mxCell id="F2SxSTT8hz7Iwo73es0D-11" value="getProducto()" style="html=1;verticalAlign=bottom;endArrow=block;curved=0;rounded=0;" parent="1" target="F2SxSTT8hz7Iwo73es0D-7" edge="1">
          <mxGeometry width="80" relative="1" as="geometry">
            <mxPoint x="665" y="466" as="sourcePoint" />
            <mxPoint x="815" y="466" as="targetPoint" />
          </mxGeometry>
        </mxCell>
        <mxCell id="F2SxSTT8hz7Iwo73es0D-13" value="return Producto" style="html=1;verticalAlign=bottom;endArrow=open;dashed=1;endSize=8;curved=0;rounded=0;" parent="1" source="F2SxSTT8hz7Iwo73es0D-7" edge="1">
          <mxGeometry relative="1" as="geometry">
            <mxPoint x="815" y="496" as="sourcePoint" />
            <mxPoint x="665" y="496" as="targetPoint" />
          </mxGeometry>
        </mxCell>
        <mxCell id="F2SxSTT8hz7Iwo73es0D-14" value="getPrecioTotal()" style="html=1;verticalAlign=bottom;endArrow=block;curved=0;rounded=0;" parent="1" target="F2SxSTT8hz7Iwo73es0D-7" edge="1">
          <mxGeometry width="80" relative="1" as="geometry">
            <mxPoint x="665" y="536" as="sourcePoint" />
            <mxPoint x="815" y="536" as="targetPoint" />
          </mxGeometry>
        </mxCell>
        <mxCell id="F2SxSTT8hz7Iwo73es0D-15" value="return double" style="html=1;verticalAlign=bottom;endArrow=open;dashed=1;endSize=8;curved=0;rounded=0;" parent="1" source="F2SxSTT8hz7Iwo73es0D-7" edge="1">
          <mxGeometry relative="1" as="geometry">
            <mxPoint x="815" y="566" as="sourcePoint" />
            <mxPoint x="665" y="566" as="targetPoint" />
          </mxGeometry>
        </mxCell>
        <mxCell id="F2SxSTT8hz7Iwo73es0D-16" value="calcularTotal()" style="html=1;verticalAlign=bottom;endArrow=block;curved=0;rounded=0;fillColor=#FFFFFF;" parent="1" edge="1" target="F2SxSTT8hz7Iwo73es0D-19">
          <mxGeometry width="80" relative="1" as="geometry">
            <mxPoint x="655" y="611" as="sourcePoint" />
            <mxPoint x="-195" y="611" as="targetPoint" />
          </mxGeometry>
        </mxCell>
        <mxCell id="F2SxSTT8hz7Iwo73es0D-17" value="imprimirTicket()" style="html=1;verticalAlign=bottom;endArrow=block;curved=0;rounded=0;fillColor=#FFFFFF;" parent="1" edge="1">
          <mxGeometry width="80" relative="1" as="geometry">
            <mxPoint x="-195" y="361" as="sourcePoint" />
            <mxPoint x="655" y="361" as="targetPoint" />
          </mxGeometry>
        </mxCell>
        <mxCell id="F2SxSTT8hz7Iwo73es0D-18" value="cliente:Cliente" style="shape=umlLifeline;perimeter=lifelinePerimeter;whiteSpace=wrap;html=1;container=1;dropTarget=0;collapsible=0;recursiveResize=0;outlineConnect=0;portConstraint=eastwest;newEdgeStyle={&quot;curved&quot;:0,&quot;rounded&quot;:0};" parent="1" vertex="1">
          <mxGeometry x="-240" y="70" width="100" height="570" as="geometry" />
        </mxCell>
        <mxCell id="F2SxSTT8hz7Iwo73es0D-19" value="" style="html=1;points=[[0,0,0,0,5],[0,1,0,0,-5],[1,0,0,0,5],[1,1,0,0,-5]];perimeter=orthogonalPerimeter;outlineConnect=0;targetShapes=umlLifeline;portConstraint=eastwest;newEdgeStyle={&quot;curved&quot;:0,&quot;rounded&quot;:0};" parent="F2SxSTT8hz7Iwo73es0D-18" vertex="1">
          <mxGeometry x="45" y="50" width="10" height="500" as="geometry" />
        </mxCell>
        <mxCell id="F2SxSTT8hz7Iwo73es0D-20" value="Mc Chombo 1:&lt;div&gt;Combo&lt;/div&gt;" style="shape=umlLifeline;perimeter=lifelinePerimeter;whiteSpace=wrap;html=1;container=1;dropTarget=0;collapsible=0;recursiveResize=0;outlineConnect=0;portConstraint=eastwest;newEdgeStyle={&quot;curved&quot;:0,&quot;rounded&quot;:0};" parent="1" vertex="1">
          <mxGeometry x="140" y="70" width="90" height="570" as="geometry" />
        </mxCell>
        <mxCell id="F2SxSTT8hz7Iwo73es0D-21" value="" style="html=1;points=[[0,0,0,0,5],[0,1,0,0,-5],[1,0,0,0,5],[1,1,0,0,-5]];perimeter=orthogonalPerimeter;outlineConnect=0;targetShapes=umlLifeline;portConstraint=eastwest;newEdgeStyle={&quot;curved&quot;:0,&quot;rounded&quot;:0};" parent="F2SxSTT8hz7Iwo73es0D-20" vertex="1">
          <mxGeometry x="40" y="70" width="10" height="170" as="geometry" />
        </mxCell>
        <mxCell id="F2SxSTT8hz7Iwo73es0D-22" value="add(Producto)" style="html=1;verticalAlign=bottom;endArrow=block;curved=0;rounded=0;" parent="1" edge="1">
          <mxGeometry width="80" relative="1" as="geometry">
            <mxPoint x="190" y="236" as="sourcePoint" />
            <mxPoint x="289.5" y="236" as="targetPoint" />
          </mxGeometry>
        </mxCell>
        <mxCell id="F2SxSTT8hz7Iwo73es0D-23" value="add(Producto)" style="html=1;verticalAlign=bottom;endArrow=block;curved=0;rounded=0;entryX=0;entryY=0;entryDx=0;entryDy=5;entryPerimeter=0;" parent="1" edge="1">
          <mxGeometry width="80" relative="1" as="geometry">
            <mxPoint x="190" y="267" as="sourcePoint" />
            <mxPoint x="410" y="267" as="targetPoint" />
            <mxPoint as="offset" />
          </mxGeometry>
        </mxCell>
        <mxCell id="F2SxSTT8hz7Iwo73es0D-24" value="add(Producto)" style="html=1;verticalAlign=bottom;endArrow=block;curved=0;rounded=0;" parent="1" edge="1">
          <mxGeometry width="80" relative="1" as="geometry">
            <mxPoint x="190" y="293" as="sourcePoint" />
            <mxPoint x="530.5" y="293" as="targetPoint" />
          </mxGeometry>
        </mxCell>
        <mxCell id="ldjhp6ecMFq0PakG_y3W-1" value="Diagrama de secuencias para imprimir el ticket de la compra de un&amp;nbsp;“Súper Requete Mc Chombo 1”, que tiene adentro un “Mc Chombos 1” y un “Súper Mc Chombo 1”&lt;br&gt;&lt;div&gt;&lt;br&gt;&lt;/div&gt;" style="text;html=1;align=center;verticalAlign=middle;whiteSpace=wrap;rounded=0;fillColor=#FFFFFF;" parent="1" vertex="1">
          <mxGeometry x="-100" y="20" width="900" height="30" as="geometry" />
        </mxCell>
        <mxCell id="ldjhp6ecMFq0PakG_y3W-2" value="ham:&lt;div&gt;ProductoIndividual&lt;/div&gt;" style="shape=umlLifeline;perimeter=lifelinePerimeter;whiteSpace=wrap;html=1;container=1;dropTarget=0;collapsible=0;recursiveResize=0;outlineConnect=0;portConstraint=eastwest;newEdgeStyle={&quot;curved&quot;:0,&quot;rounded&quot;:0};" parent="1" vertex="1">
          <mxGeometry x="240" y="70" width="110" height="570" as="geometry" />
        </mxCell>
        <mxCell id="ldjhp6ecMFq0PakG_y3W-5" value="" style="html=1;points=[[0,0,0,0,5],[0,1,0,0,-5],[1,0,0,0,5],[1,1,0,0,-5]];perimeter=orthogonalPerimeter;outlineConnect=0;targetShapes=umlLifeline;portConstraint=eastwest;newEdgeStyle={&quot;curved&quot;:0,&quot;rounded&quot;:0};" parent="ldjhp6ecMFq0PakG_y3W-2" vertex="1">
          <mxGeometry x="50" y="156" width="10" height="20" as="geometry" />
        </mxCell>
        <mxCell id="ldjhp6ecMFq0PakG_y3W-3" value="papas:&lt;div&gt;ProductoIndividual&lt;/div&gt;" style="shape=umlLifeline;perimeter=lifelinePerimeter;whiteSpace=wrap;html=1;container=1;dropTarget=0;collapsible=0;recursiveResize=0;outlineConnect=0;portConstraint=eastwest;newEdgeStyle={&quot;curved&quot;:0,&quot;rounded&quot;:0};" parent="1" vertex="1">
          <mxGeometry x="360" y="70" width="110" height="570" as="geometry" />
        </mxCell>
        <mxCell id="ldjhp6ecMFq0PakG_y3W-6" value="" style="html=1;points=[[0,0,0,0,5],[0,1,0,0,-5],[1,0,0,0,5],[1,1,0,0,-5]];perimeter=orthogonalPerimeter;outlineConnect=0;targetShapes=umlLifeline;portConstraint=eastwest;newEdgeStyle={&quot;curved&quot;:0,&quot;rounded&quot;:0};" parent="ldjhp6ecMFq0PakG_y3W-3" vertex="1">
          <mxGeometry x="50" y="186" width="10" height="20" as="geometry" />
        </mxCell>
        <mxCell id="ldjhp6ecMFq0PakG_y3W-4" value="gaseosa:&lt;div&gt;ProductoIndividual&lt;/div&gt;" style="shape=umlLifeline;perimeter=lifelinePerimeter;whiteSpace=wrap;html=1;container=1;dropTarget=0;collapsible=0;recursiveResize=0;outlineConnect=0;portConstraint=eastwest;newEdgeStyle={&quot;curved&quot;:0,&quot;rounded&quot;:0};" parent="1" vertex="1">
          <mxGeometry x="480" y="70" width="110" height="570" as="geometry" />
        </mxCell>
        <mxCell id="ldjhp6ecMFq0PakG_y3W-7" value="" style="html=1;points=[[0,0,0,0,5],[0,1,0,0,-5],[1,0,0,0,5],[1,1,0,0,-5]];perimeter=orthogonalPerimeter;outlineConnect=0;targetShapes=umlLifeline;portConstraint=eastwest;newEdgeStyle={&quot;curved&quot;:0,&quot;rounded&quot;:0};" parent="ldjhp6ecMFq0PakG_y3W-4" vertex="1">
          <mxGeometry x="50" y="213" width="10" height="20" as="geometry" />
        </mxCell>
        <mxCell id="ldjhp6ecMFq0PakG_y3W-11" value="Combo(String)" style="html=1;verticalAlign=bottom;endArrow=block;curved=0;rounded=0;entryX=0;entryY=0;entryDx=0;entryDy=5;entryPerimeter=0;" parent="1" source="F2SxSTT8hz7Iwo73es0D-19" target="pUhQjliZvW4v5w3B-7ST-2" edge="1">
          <mxGeometry x="0.0087" width="80" relative="1" as="geometry">
            <mxPoint x="-195" y="143" as="sourcePoint" />
            <mxPoint x="-80" y="143" as="targetPoint" />
            <mxPoint as="offset" />
          </mxGeometry>
        </mxCell>
        <mxCell id="Ir8-gKAqQ7259Jka6nyd-1" value="Súper Mc Chombo 1: Combo" style="shape=umlLifeline;perimeter=lifelinePerimeter;whiteSpace=wrap;html=1;container=1;dropTarget=0;collapsible=0;recursiveResize=0;outlineConnect=0;portConstraint=eastwest;newEdgeStyle={&quot;curved&quot;:0,&quot;rounded&quot;:0};" parent="1" vertex="1">
          <mxGeometry x="9" y="70" width="110" height="570" as="geometry" />
        </mxCell>
        <mxCell id="Ir8-gKAqQ7259Jka6nyd-2" value="" style="html=1;points=[[0,0,0,0,5],[0,1,0,0,-5],[1,0,0,0,5],[1,1,0,0,-5]];perimeter=orthogonalPerimeter;outlineConnect=0;targetShapes=umlLifeline;portConstraint=eastwest;newEdgeStyle={&quot;curved&quot;:0,&quot;rounded&quot;:0};" parent="Ir8-gKAqQ7259Jka6nyd-1" vertex="1">
          <mxGeometry x="50" y="70" width="10" height="110" as="geometry" />
        </mxCell>
        <mxCell id="Ir8-gKAqQ7259Jka6nyd-3" value="add(Producto)" style="html=1;verticalAlign=bottom;endArrow=block;curved=0;rounded=0;" parent="1" edge="1">
          <mxGeometry width="80" relative="1" as="geometry">
            <mxPoint x="69" y="209.5" as="sourcePoint" />
            <mxPoint x="180" y="209.5" as="targetPoint" />
          </mxGeometry>
        </mxCell>
        <mxCell id="pUhQjliZvW4v5w3B-7ST-1" value="Súper Requete Mc Chombo 1: Combo" style="shape=umlLifeline;perimeter=lifelinePerimeter;whiteSpace=wrap;html=1;container=1;dropTarget=0;collapsible=0;recursiveResize=0;outlineConnect=0;portConstraint=eastwest;newEdgeStyle={&quot;curved&quot;:0,&quot;rounded&quot;:0};" parent="1" vertex="1">
          <mxGeometry x="-120" y="70" width="110" height="570" as="geometry" />
        </mxCell>
        <mxCell id="pUhQjliZvW4v5w3B-7ST-2" value="" style="html=1;points=[[0,0,0,0,5],[0,1,0,0,-5],[1,0,0,0,5],[1,1,0,0,-5]];perimeter=orthogonalPerimeter;outlineConnect=0;targetShapes=umlLifeline;portConstraint=eastwest;newEdgeStyle={&quot;curved&quot;:0,&quot;rounded&quot;:0};" parent="pUhQjliZvW4v5w3B-7ST-1" vertex="1">
          <mxGeometry x="50" y="65" width="10" height="65" as="geometry" />
        </mxCell>
        <mxCell id="pUhQjliZvW4v5w3B-7ST-3" value="add(Producto)" style="html=1;verticalAlign=bottom;endArrow=block;curved=0;rounded=0;" parent="1" edge="1">
          <mxGeometry width="80" relative="1" as="geometry">
            <mxPoint x="-60" y="150.5" as="sourcePoint" />
            <mxPoint x="59" y="150.5" as="targetPoint" />
          </mxGeometry>
        </mxCell>
        <mxCell id="pUhQjliZvW4v5w3B-7ST-5" value="add(Producto)" style="html=1;verticalAlign=bottom;endArrow=block;curved=0;rounded=0;" parent="1" edge="1">
          <mxGeometry width="80" relative="1" as="geometry">
            <mxPoint x="-60" y="178.5" as="sourcePoint" />
            <mxPoint x="180" y="178.5" as="targetPoint" />
          </mxGeometry>
        </mxCell>
        <mxCell id="m-rUa9RZmdmCxry9l5M--1" value="loop&lt;div&gt;[1,2&lt;span style=&quot;background-color: initial;&quot;&gt;]&lt;/span&gt;&lt;/div&gt;" style="shape=umlFrame;whiteSpace=wrap;html=1;pointerEvents=0;width=41;height=30;strokeColor=#CC0066;" vertex="1" parent="1">
          <mxGeometry x="30" y="190" width="560" height="140" as="geometry" />
        </mxCell>
      </root>
    </mxGraphModel>
  </diagram>
</mxfile>
